# xmcd CD database file
#
# Track frame offsets:
#	150
#	25636
#	51885
#	79106
#	107768
#	133498
#	160340
#	185686
#
# Disc length: 2830 seconds
#
# Revision: 0
# Processed by: cddbd v1.5.1PL2 Copyright (c) Steve Scherf et al.
# Submitted via: CDex 1.51
#
DISCID=690b0c08
DTITLE=Digiview Entertainment Mind Therapy - Inner Thoughts
DYEAR=2005
DGENRE=New Age
TTITLE0=Savannah
TTITLE1=Magnolias
TTITLE2=Mimosa
TTITLE3=Dreamscapes
TTITLE4=Open Plains
TTITLE5=Meditation
TTITLE6=Tranquility
TTITLE7=Water Course
EXTD=YEAR: 2005
EXTT0=
EXTT1=
EXTT2=
EXTT3=
EXTT4=
EXTT5=
EXTT6=
EXTT7=
PLAYORDER=
